# xmcd CD database file
#
# Track frame offsets:
#	150
#	13925
#	36078
#	52313
#	66787
#	80353
#	84061
#	105305
#	120693
#	136709
#	144626
#	156301
#	170404
#	185077
#	199035
#
# Disc length: 3240 seconds
#
# Revision: 2
# Processed by: cddbd v1.5.1PL2 Copyright (c) Steve Scherf et al.
# Submitted via: CDex 1.50
#
DISCID=c90ca60f
DTITLE=Scream - Uf der guete Site
DYEAR=2006
DGENRE=Rock - SwissGerman
TTITLE0=Lusbuebetroum
TTITLE1=Churzschluss
TTITLE2=Irgendwo Uf Dere Wält
TTITLE3=Die Schueh Si Gmacht Zum Loufe
TTITLE4=Sehr Guet
TTITLE5=Ouge Intermezzo
TTITLE6=Ouge
TTITLE7=Spurlos Verschwinde
TTITLE8=Dini Fründe Si Immer Drömmer
TTITLE9=Wo Isch Äch Dr Summer
TTITLE10=Sheriff
TTITLE11=Uf Dr Guete Site
TTITLE12=Ganz Weni Meh
TTITLE13=Vorwärts Mache
TTITLE14=Weis Äch Irgendöpper Wies Witergeit
EXTD=YEAR: 2006
EXTT0=
EXTT1=
EXTT2=
EXTT3=
EXTT4=
EXTT5=
EXTT6=
EXTT7=
EXTT8=
EXTT9=
EXTT10=
EXTT11=
EXTT12=
EXTT13=
EXTT14=
PLAYORDER=
